{
    "asset" : {
        "generator" : "Khronos glTF Blender I/O v1.7.33",
        "version" : "2.0"
    },
    "scene" : 1,
    "scenes" : [
        {
            "name" : "Scene1"
        },
        {
            "name" : "Scene2",
            "nodes" : [
                0,
                1,
                2,
                3
            ]
        }
    ],
    "nodes" : [
        {
            "mesh" : 0,
            "name" : "UI1",
            "rotation" : [
                0.5033441781997681,
                0.49663329124450684,
                -0.4966333210468292,
                0.5033441781997681
            ],
            "translation" : [
                -10.013872146606445,
                3.262596607208252,
                1.800085186958313
            ]
        },
        {
            "mesh" : 1,
            "name" : "UI2",
            "rotation" : [
                0.5033441781997681,
                0.49663329124450684,
                -0.4966333210468292,
                0.5033441781997681
            ],
            "translation" : [
                -10.019306182861328,
                1.2471134662628174,
                1.6134313344955444
            ]
        },
        {
            "mesh" : 2,
            "name" : "UI3",
            "rotation" : [
                0.5033441781997681,
                0.49663329124450684,
                -0.4966333210468292,
                0.5033441781997681
            ],
            "translation" : [
                -10.356922149658203,
                3.250922441482544,
                -2.029219150543213
            ]
        },
        {
            "mesh" : 3,
            "name" : "UI4",
            "rotation" : [
                0.5033441781997681,
                0.49663329124450684,
                -0.4966333210468292,
                0.5033441781997681
            ],
            "translation" : [
                -10.323756217956543,
                1.2121412754058838,
                -1.78653883934021
            ]
        }
    ],
    "animations" : [
        {
            "channels" : [
                {
                    "sampler" : 0,
                    "target" : {
                        "node" : 0,
                        "path" : "rotation"
                    }
                }
            ],
            "name" : "UI1Action",
            "samplers" : [
                {
                    "input" : 13,
                    "interpolation" : "STEP",
                    "output" : 14
                }
            ]
        },
        {
            "channels" : [
                {
                    "sampler" : 0,
                    "target" : {
                        "node" : 1,
                        "path" : "rotation"
                    }
                }
            ],
            "name" : "UI1Action.002",
            "samplers" : [
                {
                    "input" : 13,
                    "interpolation" : "STEP",
                    "output" : 15
                }
            ]
        },
        {
            "channels" : [
                {
                    "sampler" : 0,
                    "target" : {
                        "node" : 2,
                        "path" : "rotation"
                    }
                }
            ],
            "name" : "UI1Action.003",
            "samplers" : [
                {
                    "input" : 13,
                    "interpolation" : "STEP",
                    "output" : 16
                }
            ]
        },
        {
            "channels" : [
                {
                    "sampler" : 0,
                    "target" : {
                        "node" : 3,
                        "path" : "rotation"
                    }
                }
            ],
            "name" : "UI1Action.004",
            "samplers" : [
                {
                    "input" : 13,
                    "interpolation" : "STEP",
                    "output" : 17
                }
            ]
        }
    ],
    "materials" : [
        {
            "doubleSided" : true,
            "name" : "Material.011",
            "pbrMetallicRoughness" : {
                "baseColorFactor" : [
                    0.462568461894989,
                    0.7025240063667297,
                    1,
                    1
                ],
                "metallicFactor" : 0,
                "roughnessFactor" : 0.5
            }
        }
    ],
    "meshes" : [
        {
            "name" : "Plane.002",
            "primitives" : [
                {
                    "attributes" : {
                        "POSITION" : 0,
                        "NORMAL" : 1,
                        "TEXCOORD_0" : 2
                    },
                    "indices" : 3,
                    "material" : 0
                }
            ]
        },
        {
            "name" : "Plane.008",
            "primitives" : [
                {
                    "attributes" : {
                        "POSITION" : 4,
                        "NORMAL" : 5,
                        "TEXCOORD_0" : 6
                    },
                    "indices" : 3,
                    "material" : 0
                }
            ]
        },
        {
            "name" : "Plane.009",
            "primitives" : [
                {
                    "attributes" : {
                        "POSITION" : 7,
                        "NORMAL" : 8,
                        "TEXCOORD_0" : 9
                    },
                    "indices" : 3,
                    "material" : 0
                }
            ]
        },
        {
            "name" : "Plane.010",
            "primitives" : [
                {
                    "attributes" : {
                        "POSITION" : 10,
                        "NORMAL" : 11,
                        "TEXCOORD_0" : 12
                    },
                    "indices" : 3,
                    "material" : 0
                }
            ]
        }
    ],
    "accessors" : [
        {
            "bufferView" : 0,
            "componentType" : 5126,
            "count" : 96,
            "max" : [
                0.5055997371673584,
                0.15561628341674805,
                0.5055997371673584
            ],
            "min" : [
                -0.5055997371673584,
                0.013577261008322239,
                -0.5055997371673584
            ],
            "type" : "VEC3"
        },
        {
            "bufferView" : 1,
            "componentType" : 5126,
            "count" : 96,
            "type" : "VEC3"
        },
        {
            "bufferView" : 2,
            "componentType" : 5126,
            "count" : 96,
            "type" : "VEC2"
        },
        {
            "bufferView" : 3,
            "componentType" : 5123,
            "count" : 144,
            "type" : "SCALAR"
        },
        {
            "bufferView" : 4,
            "componentType" : 5126,
            "count" : 96,
            "max" : [
                0.5055997371673584,
                0.15561628341674805,
                0.5055997371673584
            ],
            "min" : [
                -0.5055997371673584,
                0.013577261008322239,
                -0.5055997371673584
            ],
            "type" : "VEC3"
        },
        {
            "bufferView" : 5,
            "componentType" : 5126,
            "count" : 96,
            "type" : "VEC3"
        },
        {
            "bufferView" : 6,
            "componentType" : 5126,
            "count" : 96,
            "type" : "VEC2"
        },
        {
            "bufferView" : 7,
            "componentType" : 5126,
            "count" : 96,
            "max" : [
                0.5055997371673584,
                0.15561628341674805,
                0.5055997371673584
            ],
            "min" : [
                -0.5055997371673584,
                0.013577261008322239,
                -0.5055997371673584
            ],
            "type" : "VEC3"
        },
        {
            "bufferView" : 8,
            "componentType" : 5126,
            "count" : 96,
            "type" : "VEC3"
        },
        {
            "bufferView" : 9,
            "componentType" : 5126,
            "count" : 96,
            "type" : "VEC2"
        },
        {
            "bufferView" : 10,
            "componentType" : 5126,
            "count" : 96,
            "max" : [
                0.5055997371673584,
                0.15561628341674805,
                0.5055997371673584
            ],
            "min" : [
                -0.5055997371673584,
                0.013577261008322239,
                -0.5055997371673584
            ],
            "type" : "VEC3"
        },
        {
            "bufferView" : 11,
            "componentType" : 5126,
            "count" : 96,
            "type" : "VEC3"
        },
        {
            "bufferView" : 12,
            "componentType" : 5126,
            "count" : 96,
            "type" : "VEC2"
        },
        {
            "bufferView" : 13,
            "componentType" : 5126,
            "count" : 1,
            "max" : [
                0.041666666666666664
            ],
            "min" : [
                0.041666666666666664
            ],
            "type" : "SCALAR"
        },
        {
            "bufferView" : 14,
            "componentType" : 5126,
            "count" : 1,
            "type" : "VEC4"
        },
        {
            "bufferView" : 15,
            "componentType" : 5126,
            "count" : 1,
            "type" : "VEC4"
        },
        {
            "bufferView" : 16,
            "componentType" : 5126,
            "count" : 1,
            "type" : "VEC4"
        },
        {
            "bufferView" : 17,
            "componentType" : 5126,
            "count" : 1,
            "type" : "VEC4"
        }
    ],
    "bufferViews" : [
        {
            "buffer" : 0,
            "byteLength" : 1152,
            "byteOffset" : 0
        },
        {
            "buffer" : 0,
            "byteLength" : 1152,
            "byteOffset" : 1152
        },
        {
            "buffer" : 0,
            "byteLength" : 768,
            "byteOffset" : 2304
        },
        {
            "buffer" : 0,
            "byteLength" : 288,
            "byteOffset" : 3072
        },
        {
            "buffer" : 0,
            "byteLength" : 1152,
            "byteOffset" : 3360
        },
        {
            "buffer" : 0,
            "byteLength" : 1152,
            "byteOffset" : 4512
        },
        {
            "buffer" : 0,
            "byteLength" : 768,
            "byteOffset" : 5664
        },
        {
            "buffer" : 0,
            "byteLength" : 1152,
            "byteOffset" : 6432
        },
        {
            "buffer" : 0,
            "byteLength" : 1152,
            "byteOffset" : 7584
        },
        {
            "buffer" : 0,
            "byteLength" : 768,
            "byteOffset" : 8736
        },
        {
            "buffer" : 0,
            "byteLength" : 1152,
            "byteOffset" : 9504
        },
        {
            "buffer" : 0,
            "byteLength" : 1152,
            "byteOffset" : 10656
        },
        {
            "buffer" : 0,
            "byteLength" : 768,
            "byteOffset" : 11808
        },
        {
            "buffer" : 0,
            "byteLength" : 4,
            "byteOffset" : 12576
        },
        {
            "buffer" : 0,
            "byteLength" : 16,
            "byteOffset" : 12580
        },
        {
            "buffer" : 0,
            "byteLength" : 16,
            "byteOffset" : 12596
        },
        {
            "buffer" : 0,
            "byteLength" : 16,
            "byteOffset" : 12612
        },
        {
            "buffer" : 0,
            "byteLength" : 16,
            "byteOffset" : 12628
        }
    ],
    "buffers" : [
        {
            "byteLength" : 12644,
            "uri" : "data:application/octet-stream;base64,"
        }
    ]
}
